<?xml version="1.0" encoding="utf-8"?>
<!-- Generator: Adobe Illustrator 26.2.1, SVG Export Plug-In . SVG Version: 6.00 Build 0)  -->
<svg version="1.1" id="Layer_1" xmlns="http://www.w3.org/2000/svg" xmlns:xlink="http://www.w3.org/1999/xlink" x="0px" y="0px"
	 viewBox="0 0 512 517" style="enable-background:new 0 0 512 517;" xml:space="preserve">
<g>
	<path d="M459.8,348.2c-10.4-8.7-37.7-37.2-38.5-64.1l-0.1-3.1c-0.7-22.9-2.1-70.4-21.5-113.2c-14.8-32.6-37.1-56.2-65.8-70.5
		l-2-61.4c-0.5-15.5-13.6-27.5-28.9-27.1l-106.3,3.5c-15.5,0.5-27.6,13.4-27.1,28.9l2.1,62.6c-10.4,6.3-19.7,13.9-28.1,22.8
		c-48.7,52.1-45.9,131.1-44.7,164.9l0.1,3.2c0.9,26.9-24.4,57.2-34.2,66.5c-6.6,6.2-9.8,15.3-8.5,24.3c1.2,9,6.7,17,14.8,21.2
		c2.1,1.1,47.3,24.5,140.8,28.7c6,24.5,20.8,45.5,42.1,59.4c16.5,10.8,35.3,16.3,54.4,16.3c6.8,0,13.7-0.7,20.6-2.2
		c26-5.5,48.4-20.8,63-43.1c10.3-15.9,15.7-33.9,16.1-52.3c31.7-9.7,47.4-19.2,48.7-19.9c7.7-4.7,12.6-12.9,13.3-21.9
		C470.4,362.8,466.7,354,459.8,348.2L459.8,348.2z M226.4,67.4l50.4-1.6l0.5,16.5c-5.5-0.5-11-0.8-16.8-0.8c-2.4,0-4.8,0-7.3,0.1
		c-9.1,0.3-17.9,1.2-26.3,2.5L226.4,67.4z M154.8,293l-0.1-3.5c-0.9-26.8-3.1-89.5,29.7-124.6c16.2-17.4,39.4-26.3,70.7-27.3
		c1.9-0.1,3.7-0.1,5.5-0.1c46.7,0,100.7,16.5,104.6,145.2l0.1,3.3c0.9,28.9,14.6,54.6,28.6,73.3c-26.7,8.3-69.7,16.8-130.9,18.8
		c-7.4,0.2-14.9-0.5-22.1-0.5h0c-49.7,0-86.1-5-109.8-10.7C143.7,347.3,155.7,321.9,154.8,293L154.8,293z M344.8,435.3
		c-6.4,9.8-16.2,16.5-27.6,18.9c-11.4,2.4-23,0.2-32.8-6.2c-5.3-3.4-9.6-7.9-12.9-13c29.5-1.2,55.3-4.1,77.4-7.8
		C347.8,430,346.5,432.7,344.8,435.3L344.8,435.3z"/>
	<path d="M68,249.5c-0.1-0.6-4.6-57.2,25.4-98.5c9.1-12.5,6.3-30-6.2-39.1c-12.5-9.1-30-6.3-39.1,6.2
		C5.5,176.9,11.9,251.5,12.2,254.7C13.6,269.2,25.7,280,40,280c0.8,0,1.7,0,2.6-0.1C57.9,278.5,69.3,264.9,68,249.5L68,249.5z"/>
	<path d="M500,193c-14.4-88.6-70.3-135.1-72.7-137c-12-9.8-29.6-8-39.4,4c-9.8,12-8,29.6,4,39.4c0.4,0.3,42,35.8,52.8,102.6
		c2.2,13.7,14.1,23.5,27.6,23.5c1.5,0,3-0.1,4.5-0.4C492.1,222.6,502.4,208.2,500,193L500,193z"/>
</g>
</svg>
