<?xml version="1.0" encoding="utf-8"?>
<!-- Generator: Adobe Illustrator 26.2.1, SVG Export Plug-In . SVG Version: 6.00 Build 0)  -->
<svg version="1.1" id="Layer_1" xmlns="http://www.w3.org/2000/svg" xmlns:xlink="http://www.w3.org/1999/xlink" x="0px" y="0px"
	 viewBox="0 0 356 450" style="enable-background:new 0 0 356 450;" xml:space="preserve">
<g>
	<path d="M325.8,444.3c-5.4,0-10.1-2.3-14-6.2L178,299.7L44.2,438.9c-7,7.8-19.4,7.8-27.2,0.8c-3.9-3.9-5.4-8.6-6.2-13.2V24.3
		c0-10.9,8.6-19.4,19.4-19.4l295.5,0c10.9,0,19.4,8.6,19.4,19.4v400.5C344.4,435.8,335.9,444.3,325.8,444.3L325.8,444.3z M178,252.2
		c5.4,0,10.1,2.3,14,6.2l114.3,119V43.8H49.7v333.7l114.3-119C167.9,254.6,173.3,252.2,178,252.2L178,252.2z"/>
</g>
</svg>
