<?xml version="1.0" encoding="utf-8"?>
<!-- Generator: Adobe Illustrator 26.2.1, SVG Export Plug-In . SVG Version: 6.00 Build 0)  -->
<svg version="1.1" id="Layer_1" xmlns="http://www.w3.org/2000/svg" xmlns:xlink="http://www.w3.org/1999/xlink" x="0px" y="0px"
	 viewBox="0 0 510 510" style="enable-background:new 0 0 510 510;" xml:space="preserve">
<style type="text/css">
	.st0{fill-rule:evenodd;clip-rule:evenodd;}
</style>
<g>
	<path class="st0" d="M320,44.2c75.5,23.4,133.5,86.6,149.6,165v0c19.5,4.8,34,22.5,34,43.5c0,24.8-20.1,44.8-44.8,44.8
		c-24.8,0-44.8-20.1-44.8-44.8c0-15,7.4-28.3,18.8-36.5c-13.1-62.7-58.5-113.5-118-134.3l0.7-1.6c4.1-6.8,6.5-14.7,6.5-23.3
		C321.9,52.6,321.3,48.3,320,44.2L320,44.2z M239.3,272.8h31.4c54.7,0,93.8,40,93.8,94.5h-37.2c0-33.8-22.2-57.3-56.6-57.3h-31.4
		c-34.4,0-56.6,23.5-56.6,57.3h-37.2C145.5,312.9,184.6,272.8,239.3,272.8L239.3,272.8z M255,117.1c39.9,0,72.2,32.4,72.2,72.2
		c0,39.9-32.4,72.2-72.2,72.2c-39.8,0-72.2-32.4-72.2-72.2C182.8,149.5,215.1,117.1,255,117.1L255,117.1z M255,154.3
		c-19.3,0-35,15.7-35,35c0,19.4,15.7,35,35,35s35-15.6,35-35C290,170,274.3,154.3,255,154.3z M258.3,504.7
		c-24.8,0-44.8-20.1-44.8-44.8s20.1-44.8,44.8-44.8c13.9,0,26.3,6.3,34.5,16.2c62.4-13.2,112.9-58.4,133.7-117.7
		c7.6,5.9,17.1,9.4,27.4,9.4c3.2,0,6.4-0.3,9.4-1c-23.9,72.8-85,128.8-160.8,145.6C298.8,488.6,280.4,504.7,258.3,504.7L258.3,504.7
		z M6.3,259.3c0-24.8,20.1-44.8,44.8-44.8c24.8,0,44.8,20.1,44.8,44.8c0,14.6-7,27.6-17.8,35.8c14.5,61.9,60.6,111.6,120.3,131.1
		c-6.5,7.8-10.4,17.8-10.4,28.7c0,2.6,0.2,5.1,0.6,7.6C115.5,439.3,59,378.6,41.5,303.1C21.4,298.6,6.3,280.7,6.3,259.3L6.3,259.3z
		 M251.7,7.3c24.8,0,44.8,20.1,44.8,44.8S276.5,97,251.7,97c-15.8,0-29.6-8.1-37.6-20.4c-62.3,14.3-112.4,60.7-131.9,120.9
		c-7.4-5.3-16.4-8.4-26.1-8.4c-3.8,0-7.5,0.5-11,1.4c22.8-75.8,85.5-134.4,163.7-151.2C214.3,20.8,231.4,7.3,251.7,7.3L251.7,7.3z"
		/>
</g>
</svg>
