<?xml version="1.0" encoding="utf-8"?>
<!-- Generator: Adobe Illustrator 26.2.1, SVG Export Plug-In . SVG Version: 6.00 Build 0)  -->
<svg version="1.1" id="Layer_1" xmlns="http://www.w3.org/2000/svg" xmlns:xlink="http://www.w3.org/1999/xlink" x="0px" y="0px"
	 viewBox="0 0 454 418" style="enable-background:new 0 0 454 418;" xml:space="preserve">
<g>
	<path d="M243.8,7.4c-99.6,0-182.7,72.8-198.8,168H8.6l56,67.2l56-67.2H90.7C106,104.8,168.5,52.2,243.8,52.2
		c86.9,0,156.8,69.9,156.8,156.8s-69.9,156.8-156.8,156.8c-57.1,0-107-30.2-134.4-75.6l-36.8,25.2c35.6,57.1,99.1,95.2,171.1,95.2
		c111.1,0,201.6-90.5,201.6-201.6C445.4,97.9,354.9,7.4,243.8,7.4L243.8,7.4z M221.4,119.4v100.3l8.4,6.8l73.5,58.8l28-35l-17.5-14
		l-47.6-38.1v-78.8"/>
</g>
</svg>
