<?xml version="1.0" encoding="utf-8"?>
<!-- Generator: Adobe Illustrator 26.2.1, SVG Export Plug-In . SVG Version: 6.00 Build 0)  -->
<svg version="1.1" id="Layer_1" xmlns="http://www.w3.org/2000/svg" xmlns:xlink="http://www.w3.org/1999/xlink" x="0px" y="0px"
	 viewBox="0 0 472 425" style="enable-background:new 0 0 472 425;" xml:space="preserve">
<g>
	<path d="M40,337.3h130.5l44.2,70c4.5,7.3,12.3,11.8,20.7,11.8s16.2-4.5,20.7-11.8l44.2-70H432c18.5,0,33.6-15.1,33.6-33.6V40.5
		c0-18.5-15.1-33.6-33.6-33.6l-392,0C21.5,6.9,6.4,22,6.4,40.5v263.2C6.4,322.2,21.5,337.3,40,337.3L40,337.3z M40,40.5h392v263.2
		H292c-5.6,0-11.2,2.8-14,7.8l-42,66.1l-42-66.1c-3.4-5-8.4-7.8-14-7.8l-140,0V40.5z"/>
	<path d="M118.4,123.4c-28,0-50.4,22.4-50.4,50.4s22.4,50.4,50.4,50.4s50.4-22.4,50.4-50.4C168.8,145.8,146.4,123.4,118.4,123.4
		L118.4,123.4z"/>
	<path d="M236,224.2c28,0,50.4-22.4,50.4-50.4S264,123.4,236,123.4s-50.4,22.4-50.4,50.4S208,224.2,236,224.2z"/>
	<path d="M353.6,224.2c28,0,50.4-22.4,50.4-50.4s-22.4-50.4-50.4-50.4s-50.4,22.4-50.4,50.4C303.2,201.8,325.6,224.2,353.6,224.2
		L353.6,224.2z"/>
</g>
</svg>
