<?xml version="1.0" encoding="utf-8"?>
<!-- Generator: Adobe Illustrator 26.2.1, SVG Export Plug-In . SVG Version: 6.00 Build 0)  -->
<svg version="1.1" id="Layer_1" xmlns="http://www.w3.org/2000/svg" xmlns:xlink="http://www.w3.org/1999/xlink" x="0px" y="0px"
	 viewBox="0 0 504 501" style="enable-background:new 0 0 504 501;" xml:space="preserve">
<g>
	<path d="M252,93.5c-57.8,0-105,47.2-105,105s47.2,105,105,105s105-47.2,105-105S309.8,93.5,252,93.5z M252,268.5
		c-38.5,0-70-31.5-70-70s31.5-70,70-70s70,31.5,70,70S290.5,268.5,252,268.5z"/>
	<path d="M252,6C116.4,6,7,115.4,7,251c0,66.5,27.1,127.8,70,171.5c10.5,10.5,21.9,20.1,35,28.9c39.4,28,87.5,43.8,140,43.8
		s100.6-16.6,140-43.8c12.2-8.8,23.6-18.4,35-28.9c43.8-44.6,70-105,70-171.5C497,115.4,387.6,6,252,6z M252,461
		c-52.5,0-99.8-19.2-136.5-50.8c9.6-31.5,38.5-54.2,72.6-54.2h128.6c34.1,0,63,22.8,72.6,54.2C351.7,441.8,304.5,461,252,461
		L252,461z M415.6,382.2c-18.4-36.8-56-61.2-98.9-61.2H188.1c-43.8,0-81.4,25.4-98.9,61.2C59.5,346.4,42,300.9,42,251
		c0-115.5,94.5-210,210-210s210,94.5,210,210C462,300.9,444.5,346.4,415.6,382.2L415.6,382.2z"/>
</g>
</svg>
