<?xml version="1.0" encoding="utf-8"?>
<!-- Generator: Adobe Illustrator 26.2.1, SVG Export Plug-In . SVG Version: 6.00 Build 0)  -->
<svg version="1.1" id="Layer_1" xmlns="http://www.w3.org/2000/svg" xmlns:xlink="http://www.w3.org/1999/xlink" x="0px" y="0px"
	 viewBox="0 0 248 251" style="enable-background:new 0 0 248 251;" xml:space="preserve">
<g>
	<path d="M235,207.4c8.7,8.8,8.7,22.9,0,31.7c-8.7,8.7-22.9,8.7-31.7,0l-46.2-46.2c-3.3-3.3-9.2-4.1-13.3-1.9c0,0,0.6-0.1-3,1.5
		c-11.9,5.4-25.2,8.4-39.1,8.4c-52.6,0-95.2-42.6-95.2-95.2C6.4,53,49,10.4,101.6,10.4c52.6,0,95.2,42.6,95.2,95.2
		c0,14-3,27.3-8.5,39.3c-1.6,3.6-1.5,3-1.5,3c-2.2,4.1-1.4,10,1.9,13.3L235,207.4z M101.6,158.8c29.4,0,53.2-23.8,53.2-53.2
		c0-29.4-23.8-53.2-53.2-53.2c-29.4,0-53.2,23.8-53.2,53.2C48.4,135,72.2,158.8,101.6,158.8z"/>
</g>
</svg>
