<?xml version="1.0" encoding="utf-8"?>
<!-- Generator: Adobe Illustrator 26.2.1, SVG Export Plug-In . SVG Version: 6.00 Build 0)  -->
<svg version="1.1" id="Layer_1" xmlns="http://www.w3.org/2000/svg" xmlns:xlink="http://www.w3.org/1999/xlink" x="0px" y="0px"
	 viewBox="0 0 506 330" style="enable-background:new 0 0 506 330;" xml:space="preserve">
<g>
	<path d="M253,60c-27.8,0-54.6,11.1-74.2,30.8S148,137.2,148,165s11.1,54.6,30.8,74.2S225.2,270,253,270s54.6-11.1,74.2-30.8
		S358,192.8,358,165s-11.1-54.6-30.8-74.2S280.8,60,253,60z M253,235c-18.6,0-36.4-7.4-49.5-20.5C190.4,201.4,183,183.6,183,165
		s7.4-36.4,20.5-49.5C216.6,102.4,234.4,95,253,95s36.4,7.4,49.5,20.5c13.1,13.1,20.5,30.9,20.5,49.5s-7.4,36.4-20.5,49.5
		C289.4,227.6,271.6,235,253,235z"/>
	<path d="M496.1,157.1C465.6,96.8,413.9,50,350.9,25.8c-63-24.3-132.8-24.3-195.8,0C92.1,50,40.4,96.8,9.9,157.1
		c-2.5,5-2.5,10.8,0,15.8C40.4,233.1,92.1,280,155.1,304.2c63,24.3,132.8,24.3,195.8,0c63-24.3,114.8-71.1,145.2-131.4
		C498.6,167.9,498.6,162.1,496.1,157.1z M253,287.5c-42.4,0.1-84.1-11.2-120.7-32.7c-36.6-21.6-66.6-52.6-87-89.8
		c27.5-49.7,71.9-88,125.2-107.8c53.3-19.8,111.9-19.8,165.1,0c53.3,19.8,97.7,58,125.2,107.8c-20.4,37.2-50.5,68.2-87,89.8
		C337.1,276.3,295.4,287.6,253,287.5L253,287.5z"/>
</g>
</svg>
