<?xml version="1.0" encoding="utf-8"?>
<!-- Generator: Adobe Illustrator 26.2.1, SVG Export Plug-In . SVG Version: 6.00 Build 0)  -->
<svg version="1.1" id="Layer_1" xmlns="http://www.w3.org/2000/svg" xmlns:xlink="http://www.w3.org/1999/xlink" x="0px" y="0px"
	 viewBox="0 0 533.2 559" style="enable-background:new 0 0 533.2 559;" xml:space="preserve">
<g>
	<path d="M338.4,311.9c15.9-33.6,5.3-85.5-35.3-106.1c-10.1-5.1-21.8-7.8-33.8-7.8c-29.7,0-64.8,17.2-76.1,55.7
		c-13.9,47.3,14.1,81.1,36.3,92.2c12.4,6.2,26.3,9.6,40.1,9.6C300.2,355.5,325.3,339.6,338.4,311.9L338.4,311.9z M306.6,296.9
		c-9.2,19.4-25.2,23.5-37,23.5c-8.2,0-16.9-2.1-24.3-5.8c-0.3-0.1-28.8-15.6-18.4-50.9c6.2-21.1,25.8-30.5,42.4-30.5
		c6.5,0,12.7,1.4,17.9,4C310.2,248.9,314.1,280.9,306.6,296.9L306.6,296.9z"/>
	<path d="M223.1,384.7c14.4,4.8,30.6,5.4,47,1.7c9.5-2.1,18.9,3.9,21,13.3c2.1,9.5-3.9,18.9-13.3,21c-22.6,5-45.3,4.1-65.8-2.7
		c-74.6-24.8-98.6-112.2-83-164c2.3-7.6,9.3-12.5,16.8-12.5c1.7,0,3.4,0.2,5.1,0.8c9.3,2.8,14.6,12.6,11.8,21.9
		C151.4,301.3,169.4,366.8,223.1,384.7L223.1,384.7z"/>
	<path d="M525.9,191.9c-1.2-13.5-39.9-87.7-64-93.6c-2.8-0.7-6.1-1-10-1c-13.6,0-36.6,4.3-53.1,8.4c-10.7-8.6-22.2-16-34.3-22.2
		c-3.8-1.9-7.8-3.8-12-5.5c-4.5-19.5-15.8-60.5-32.5-68.3c-6.9-3.2-21.6-4.8-43.7-4.8c-56.6,0-65.9,9.8-69.4,13.4
		c-10.9,11.4-22,46.6-26.9,64.6c-14.5,6.6-28.1,14.7-40.5,24c-19.9-4.5-57.8-11.5-66.7-11.5c-9.6,0.1-16.1,6.3-21.8,12.8
		c-9.6,11.1-48.8,68.5-46.1,89.3c2,15,35.3,45.1,52.3,59.6c-1.6,14.2-1.9,28.3-0.9,42C41.4,314.6,14,346.3,9.7,354
		c-4.5,8-2.4,16.7,0.4,24.9c4.8,13.9,34.9,76.5,54.3,84.6c2.8,1.2,6,1.7,9.7,1.7c13.1,0,46.7-9.7,65.1-15.7c7.9,6,16.1,11.1,23.9,15
		c4.8,2.4,9.9,4.8,15.3,7c6,20.6,19.5,58.8,23.9,66.2c3.5,5.8,9.3,15.6,70.4,15.6c41,0,48.3-5.6,51.8-8.2c11.7-9,21-47.9,25-67.1
		c15.8-5.9,30.6-13.7,44.2-23.2c15.4,4.5,42.8,11.4,59.2,11.4c4.9,0,12.1-0.5,18.1-4.7c11.1-7.8,56.1-78.4,49-102.2
		c-4.5-15.3-29.5-42.4-42-55.1c1.3-15.2,1.1-30.7-0.5-46.2C494.6,242.6,527.5,210.4,525.9,191.9L525.9,191.9z M489.9,192.8
		c-7,10.9-33.6,37.4-41.6,44.2c-5,3.8-7.7,10.1-6.8,16.4c2.6,18.5,2.8,37.1,0.7,55.1c-0.7,5.7,1.4,11.3,5.6,15.1
		c11.4,10.3,32.7,34.9,37.7,44c-2.7,12.6-23.8,51.2-33.5,63.1c-14.5-0.3-47.8-9.3-55.5-12.2c-5.7-2.2-12.2-1.2-17.1,2.6
		c-14.9,11.7-31.9,20.6-50.6,26.4c-6.5,2-11.2,7.6-12.2,14.3c-1.6,11.3-9.8,42.9-14.6,54.4c-5.1,0.8-15,1.7-29.5,1.7
		c-19.2,0-34.9-1.5-42.2-2.9c-5.8-14.1-18.2-52-20.2-59.9c-1.1-6-5.2-11.2-11.1-13.4c-7.3-2.7-14.1-5.7-20.3-8.8
		c-8-4-16.7-9.8-25-16.8c-5-4.2-11.9-5.2-17.9-2.8c-8.6,3.1-44.3,14.1-58.2,16.2C68.1,418,48,381.8,43.2,367.2
		c9.5-12.3,37.2-42.9,42.6-47.9c4.7-3.8,7.2-9.7,6.5-15.8c-1.9-16.3-1.5-33.4,1.2-50.9c1-6.7-1.9-13.3-7.3-17.1
		c-7-5.4-36.1-32.3-45.1-43.4c5.3-14.3,26.6-49.8,36.8-61.2c15.1,2,54.5,10.2,61.1,11.8c5.6,1.7,11.6,0.5,16.2-3.3
		c13.7-11.3,29.4-20.6,46.6-27.7c5.5-2.2,9.4-7,10.6-12.8c2.9-14.2,13.8-46.1,19.3-55.2c5.8-1.8,21.8-3.8,44.7-3.8
		c13.3,0,22.4,0.8,26.9,1.4c5.4,9.7,14.1,38.6,16.8,52.9c1.2,6.1,5.5,11.1,11.3,13.2c6.1,2.2,11.9,4.7,17.3,7.4
		c12.2,6.2,23.7,14,34.1,23.3c4.5,4,10.6,5.4,16.4,3.8c16.1-4.5,41.7-9.5,53-9.4C461.7,141.1,484.4,178.3,489.9,192.8L489.9,192.8z"
		/>
</g>
</svg>
