<?xml version="1.0" encoding="utf-8"?>
<!-- Generator: Adobe Illustrator 26.2.1, SVG Export Plug-In . SVG Version: 6.00 Build 0)  -->
<svg version="1.1" id="Layer_1" xmlns="http://www.w3.org/2000/svg" xmlns:xlink="http://www.w3.org/1999/xlink" x="0px" y="0px"
	 viewBox="0 0 320 380" style="enable-background:new 0 0 320 380;" xml:space="preserve">
<g>
	<path d="M255.2,4.2c-30.8,0-56,25.2-56,56c0,9,2.3,17.6,6.1,25.2l-99.1,66.1C96,140.2,81.2,133,64.8,133c-30.8,0-56,25.2-56,56
		s25.2,56,56,56c16.4,0,31.2-7.2,41.5-18.6l99.1,66c-3.9,7.6-6.1,16.2-6.1,25.4c0,30.8,25.2,56,56,56s56-25.2,56-56s-25.2-56-56-56
		c-13.5,0-25.8,4.9-35.5,12.9L117.8,207c1.9-5.7,3-11.7,3-18c0-6.3-1-12.3-3-18l101.5-67.9c9.7,8.2,22.2,13.1,35.9,13.1
		c30.8,0,56-25.2,56-56S286,4.2,255.2,4.2L255.2,4.2z"/>
</g>
</svg>
