<?xml version="1.0" encoding="utf-8"?>
<!-- Generator: Adobe Illustrator 26.2.1, SVG Export Plug-In . SVG Version: 6.00 Build 0)  -->
<svg version="1.1" id="Layer_1" xmlns="http://www.w3.org/2000/svg" xmlns:xlink="http://www.w3.org/1999/xlink" x="0px" y="0px"
	 viewBox="0 0 464 456" style="enable-background:new 0 0 464 456;" xml:space="preserve">
<g>
	<path d="M398.1,384.8c-31.7,0-57.9-28-57.9-63.5v-26.1c0-35.5,26.1-63.5,57.9-63.5s57.9,28,57.9,63.5v26.1
		C456,356.8,429.9,384.8,398.1,384.8z M398.1,267.2c-11.2,0-20.5,13.1-20.5,26.1l0,28c0,14.9,9.3,26.1,20.5,26.1
		c11.2,0,20.5-11.2,20.5-26.1v-26.1C418.7,280.3,409.3,267.2,398.1,267.2L398.1,267.2z"/>
	<path d="M67.7,384.8c-33.6,0-59.7-28-59.7-63.5v-26.1c0-35.5,26.1-63.5,59.7-63.5s59.7,28,59.7,63.5l0,26.1
		C125.6,356.8,99.5,384.8,67.7,384.8L67.7,384.8z M67.7,267.2c-11.2,0-22.4,11.2-22.4,26.1l0,28c0,14.9,9.3,26.1,22.4,26.1
		s22.4-11.2,22.4-26.1v-26.1C88.3,278.4,78.9,267.2,67.7,267.2L67.7,267.2z"/>
	<path d="M398.1,267.2c-11.2,0-18.7-7.5-18.7-18.7v-63.5c0-76.5-65.3-140-147.5-140s-147.5,63.5-147.5,140v63.5
		c0,11.2-7.5,18.7-18.7,18.7c-11.2,0-18.7-7.5-18.7-18.7v-63.5C47.2,88,129.3,7.7,232,7.7S416.8,88,416.8,185.1v63.5
		C416.8,259.7,409.3,267.2,398.1,267.2L398.1,267.2z"/>
	<path d="M398.1,448.3H265.6c-29.9,0-52.3-24.3-52.3-52.3c0-11.2,7.5-18.7,18.7-18.7c11.2,0,18.7,7.5,18.7,18.7
		c0,9.3,7.5,14.9,14.9,14.9h113.9V368c0-11.2,7.5-18.7,18.7-18.7c11.2,0,18.7,7.5,18.7,18.7v61.6
		C416.8,438.9,409.3,448.3,398.1,448.3L398.1,448.3z"/>
</g>
</svg>
