<?xml version="1.0" encoding="utf-8"?>
<!-- Generator: Adobe Illustrator 26.2.1, SVG Export Plug-In . SVG Version: 6.00 Build 0)  -->
<svg version="1.1" id="Layer_1" xmlns="http://www.w3.org/2000/svg" xmlns:xlink="http://www.w3.org/1999/xlink" x="0px" y="0px"
	 viewBox="0 0 574 575" style="enable-background:new 0 0 574 575;" xml:space="preserve">
<path d="M483,8c46.4,0,84,37.6,84,84v392c0,46.4-37.6,84-84,84H91c-46.4,0-84-37.6-84-84V92C7,45.6,44.6,8,91,8H483z M483,64H91
	c-15.5,0-28,12.5-28,28v392c0,15.5,12.5,28,28,28h392c15.5,0,28-12.5,28-28V92C511,76.5,498.5,64,483,64z M446.1,297.4l2.4,2.2
	c10.2,10.2,10.9,26.2,2.2,37.2l-2.2,2.4L329.8,458c-10.2,10.2-26.2,10.9-37.2,2.2l-2.4-2.2l-59.4-59.4c-10.9-10.9-10.9-28.7,0-39.6
	c10.2-10.2,26.2-10.9,37.2-2.2l2.4,2.2l39.6,39.6l99-99C419.1,289.4,435.2,288.7,446.1,297.4L446.1,297.4z M287,232
	c15.5,0,28,12.5,28,28c0,14.4-10.8,26.2-24.7,27.8L287,288H147c-15.5,0-28-12.5-28-28c0-14.4,10.8-26.2,24.7-27.8l3.3-0.2L287,232z
	 M427,120c15.5,0,28,12.5,28,28c0,14.4-10.8,26.2-24.7,27.8L427,176H147c-15.5,0-28-12.5-28-28c0-14.4,10.8-26.2,24.7-27.8l3.3-0.2
	H427z"/>
</svg>
